<?xml version="1.0" encoding="utf-8"?>
<!-- Generator: Adobe Illustrator 25.1.0, SVG Export Plug-In . SVG Version: 6.00 Build 0)  -->
<svg version="1.1" id="Warstwa_1" xmlns="http://www.w3.org/2000/svg" xmlns:xlink="http://www.w3.org/1999/xlink" x="0px" y="0px"
	 viewBox="0 0 841.9 595.3" style="enable-background:new 0 0 841.9 595.3;" xml:space="preserve">
<style type="text/css">
	.st0{fill-rule:evenodd;clip-rule:evenodd;fill:#013088;}
	.st1{fill-rule:evenodd;clip-rule:evenodd;fill:#B04411;}
	.st2{fill-rule:evenodd;clip-rule:evenodd;fill:#EC672A;}
</style>
<g>
	<path class="st0" d="M197.9,479.3v-19.8h14v3.7h-9.8v4.2h9.6v3.7h-9.6v4.5h9.8v3.7H197.9L197.9,479.3z M261.1,479.3v-19.8h4.3
		l9.2,12.5v-12.5h4.2v19.8h-4.1l-9.4-12.9v12.9H261.1L261.1,479.3z M328.5,479.3v-19.8h14v3.7h-9.8v4.2h9.6v3.7h-9.6v4.5h9.8v3.7
		H328.5L328.5,479.3z M391.7,479.3v-19.8h9.3c2,0,3.7,0.6,4.9,1.8c1.2,1.2,1.8,2.7,1.8,4.6c0,0.8-0.1,1.6-0.4,2.3
		c-0.3,0.7-0.6,1.3-1,1.8c-0.4,0.5-0.9,0.9-1.4,1.2c-0.5,0.3-1,0.5-1.6,0.7l4.5,7.6h-4.9l-3.9-7h-3.1v7H391.7L391.7,479.3z
		 M395.9,468.5h4.5c0.9,0,1.6-0.2,2.1-0.7c0.6-0.5,0.8-1.1,0.8-2c0-0.8-0.3-1.4-0.8-1.9c-0.6-0.5-1.3-0.7-2.1-0.7h-4.5V468.5
		L395.9,468.5z M457.1,474.8c-1-1.6-1.4-3.4-1.4-5.4c0-2,0.5-3.9,1.4-5.4c1-1.6,2.2-2.8,3.8-3.6c1.6-0.8,3.4-1.2,5.3-1.2
		c1,0,1.9,0.1,2.8,0.4c0.9,0.2,1.6,0.6,2.3,1c0.7,0.4,1.2,0.9,1.8,1.4c0.5,0.5,0.9,1.1,1.3,1.7l-3.5,1.9c-0.5-0.7-1.1-1.4-2-1.9
		c-0.8-0.5-1.7-0.7-2.7-0.7c-1.8,0-3.3,0.6-4.5,1.9c-1.2,1.2-1.8,2.8-1.8,4.7c0,1.9,0.6,3.5,1.8,4.7c1.2,1.2,2.7,1.8,4.5,1.8
		c0.8,0,1.6-0.2,2.4-0.5c0.8-0.3,1.4-0.7,1.8-1.1V472h-5.2v-3.7h9.4v7.6c-2.2,2.5-5,3.7-8.4,3.7c-1.9,0-3.7-0.4-5.3-1.2
		C459.3,477.6,458,476.4,457.1,474.8L457.1,474.8z M523.8,479.3v-19.8h4.2v19.8H523.8L523.8,479.3z M575.7,479.3l7.6-19.8h5.3
		l7.6,19.8h-4.8l-1.2-3.4h-8.5l-1.2,3.4H575.7L575.7,479.3z M582.8,472.2h6.2l-3.1-8.5L582.8,472.2z"/>
	<path class="st1" d="M342.8,226.1l-64.3-109.4c23-0.7,53.1-5.6,64.7,14.4l17.7,31.5L342.8,226.1z"/>
	<polygon class="st1" points="436.3,115.6 385.7,115.6 437.1,296.9 481.7,276.1 478.6,265 	"/>
	<path class="st2" d="M385.7,115.6h50.5l-46.1,162.7c-7.1,25.2-34,18.5-55.8,18.5L385.7,115.6z"/>
	<path class="st0" d="M150.6,441.6h24.4v-38.1l35.7-56.4H183L162.8,382l-20.5-34.8h-27.5l35.8,56.4V441.6L150.6,441.6z M232.4,443.3
		c-23.2,0-37.2-16.7-37.2-36c0-19.3,14-35.8,37.2-35.8c23.5,0,37.4,16.6,37.4,35.8C269.8,426.6,255.9,443.3,232.4,443.3L232.4,443.3
		z M232.4,424c9.6,0,15-7.5,15-16.7c0-9.1-5.4-16.6-15-16.6c-9.5,0-14.7,7.5-14.7,16.6C217.7,416.5,222.9,424,232.4,424L232.4,424z
		 M327.5,441.6h21.8v-68.4h-21.8v44.2c-2.5,3.3-6.8,6.7-13,6.7c-7.1,0-11.3-2.8-11.3-11v-39.8h-21.8v48.7c0,12.6,6.9,21.4,22.5,21.4
		c11.5,0,19.4-5.1,23.7-9.9V441.6L327.5,441.6z M365.1,441.6H387v-43.3c2.8-4,10.3-6.4,16-6.4c2.3,0,4.1,0.3,5.4,0.7v-21.1
		c-8.2,0-16.9,4.8-21.4,10.3v-8.6h-21.8V441.6L365.1,441.6z M527.2,441.6h25.8l26.9-94.5h-27.3l-14.2,63l-16.1-63h-18.7l-16.1,63
		l-14.3-63h-27.3l27.1,94.5h25.8l14.3-59.2L527.2,441.6L527.2,441.6z M621.8,441.6v-6.8c-4.2,5.1-12.5,8.5-21.2,8.5
		c-10.5,0-23.5-7.1-23.5-22.5c0-16.6,13-21.5,23.5-21.5c9.1,0,17.1,2.8,21.2,7.9v-8.6c0-5.9-5.1-9.9-13.9-9.9
		c-6.8,0-13.9,2.5-19.4,7.2l-7.8-13.7c8.8-7.5,20.5-10.6,31-10.6c16.4,0,31.9,6.1,31.9,27.3v42.8H621.8L621.8,441.6z M621.8,424
		v-6.1c-2.3-3.1-7.4-4.8-12.2-4.8c-5.8,0-10.9,2.5-10.9,7.9c0,5.4,5.1,7.9,10.9,7.9C614.4,429,619.5,427.3,621.8,424L621.8,424z
		 M660.9,478.7c19.6,0,28.1-9.1,35.3-27.4l30.9-78.2h-23.1l-15.6,43.3L673,373.2h-22.9l27.2,69.4c-0.7,11.6-5.7,16.9-16.4,16.9
		V478.7z"/>
	<path class="st2" d="M488.5,115.6H539l-46.1,162.7c-7.1,25.2-34,18.5-55.8,18.5L488.5,115.6z"/>
</g>
</svg>
